<svg width="341" height="250" xmlns="http://www.w3.org/2000/svg" version="1.0" preserveAspectRatio="xMidYMid meet">
 <metadata>Created by potrace 1.16, written by Peter Selinger 2001-2019</metadata>

 <g>
  <title>Layer 1</title>
  <path fill="#bf0000" stroke="#bf0000" d="m137.5,13.1c-18.7,4.9 -41.9,10.9 -51.5,13.4c-9.6,2.6 -18.3,4.8 -19.2,5.1c-1.6,0.5 -1.8,2.7 -2,23.1l-0.3,22.6l-29.2,7.6l-29.3,7.6l0,66.2l0,66.3l4,0l4,0l0,-64l0,-64l26.5,0l26.5,0l0,-9.8l0,-9.7l104.5,0.3l104.5,0.2l0,9.5l0,9.5l26,0l26,0l0,64l0,64l4.5,0l4.5,0l-0.2,-66.2l-0.3,-66.3l-29.5,-7.6l-29.5,-7.6l-0.3,-22.6l-0.2,-22.7l-5.3,-1.4c-2.8,-0.8 -12.2,-3.3 -20.7,-5.5c-42.2,-10.8 -78.6,-20.3 -79,-20.6c-0.3,-0.1 -15.8,3.7 -34.5,8.6zm52.3,5.3c9.2,2.4 25.9,6.8 37.2,9.7l20.5,5.4l-38.3,0.3c-21,0.1 -55.4,0.1 -76.5,0l-38.2,-0.3l37,-9.7c20.4,-5.3 38,-9.7 39.3,-9.7c1.2,-0.1 9.7,1.9 19,4.3zm77.4,37.1l0.3,14.5l-96.2,0l-96.3,0l0,-14.5l0,-14.5l95.9,0l96,0l0.3,14.5z" id="svg_2"/>
  <path fill="#bf0000" stroke="#bf0000" d="m123,54.5l0,3.5l48.5,0l48.5,0l0,-3.5l0,-3.5l-48.5,0l-48.5,0l0,3.5z" id="svg_3"/>
  <path fill="#bf0000" stroke="#bf0000" d="m119,95.9c-26.7,7 -49.7,13.1 -51.2,13.5c-2.5,0.6 -2.8,1.1 -2.8,5.1l0,4.5l106,0l106,0l0,-4.4c0,-3.4 -0.4,-4.6 -1.7,-5c-1,-0.3 -20,-5.3 -42.3,-11c-22.3,-5.8 -44.8,-11.6 -50,-13c-5.2,-1.4 -10.8,-2.6 -12.5,-2.5c-1.6,0.1 -24.8,5.8 -51.5,12.8zm77.5,1.6c11.6,3 27.8,7.3 36,9.4l15,3.9l-76.5,0.1l-76.5,0l19,-4.9c10.5,-2.8 27.3,-7.2 37.5,-9.9c11,-3 19.7,-4.8 21.5,-4.5c1.7,0.2 12.5,2.9 24,5.9z" id="svg_4"/>
  <path fill="#bf0000" stroke="#bf0000" d="m31,163l0,53l6.5,0l6.5,0l0,-53l0,-53l-6.5,0l-6.5,0l0,53z" id="svg_5"/>
  <path fill="#bf0000" stroke="#bf0000" d="m297,164l0,53l6.5,0l6.5,0l0,-53l0,-53l-6.5,0l-6.5,0l0,53z" id="svg_6"/>
  <path fill="#bf0000" stroke="#bf0000" d="m65,167.5l0,39.5l6.5,0l6.5,0l0,-39.5l0,-39.5l-6.5,0l-6.5,0l0,39.5z" id="svg_7"/>
  <path fill="#bf0000" stroke="#bf0000" d="m94,167.5l0,39.5l6.5,0l6.5,0l-0.2,-39.3l-0.3,-39.2l-6.2,-0.3l-6.3,-0.3l0,39.6z" id="svg_8"/>
  <path fill="#bf0000" stroke="#bf0000" d="m122,167.5l0,39.5l6.5,0l6.5,0l0,-39.5l0,-39.5l-6.5,0l-6.5,0l0,39.5z" id="svg_9"/>
  <path fill="#bf0000" stroke="#bf0000" d="m151,167.5l0,39.5l6,0l6,0l0,-39.5l0,-39.5l-6,0l-6,0l0,39.5z" id="svg_10"/>
  <path fill="#bf0000" stroke="#bf0000" d="m179,167.5l0,39.5l6.5,0l6.5,0l0,-39.5l0,-39.5l-6.5,0l-6.5,0l0,39.5z" id="svg_11"/>
  <path fill="#bf0000" stroke="#bf0000" d="m207,167.5l0,39.5l6.5,0l6.5,0l0,-39.5l0,-39.5l-6.5,0l-6.5,0l0,39.5z" id="svg_12"/>
  <path fill="#bf0000" stroke="#bf0000" d="m236,167.5l0,39.5l6,0l6,0l0,-39.5l0,-39.5l-6,0l-6,0l0,39.5z" id="svg_13"/>
  <path fill="#bf0000" stroke="#bf0000" d="m264,167.5l0,39.5l6.5,0l6.5,0l0,-39.5l0,-39.5l-6.5,0l-6.5,0l0,39.5z" id="svg_14"/>
  <path fill="#bf0000" stroke="#bf0000" d="m53,221l0,4l118,0l118,0l0,-4l0,-4l-118,0l-118,0l0,4z" id="svg_15"/>
  <path fill="#bf0000" stroke="#bf0000" d="m37,237l0,4l134,0l134,0l0,-4l0,-4l-134,0l-134,0l0,4z" id="svg_16"/>
 </g>
</svg>